{"title":"SuperBad.2007.DVDRip.x264.AC3-UnKn0wn","uid":9605510,"size":3073162982,"categoryP":"video","categoryS":"hd___movies","magnet":"?xt=urn:btih:9e27f184bb2deddaa2ba0f8614a7dca93babfb5f&amp;dn=SuperBad.2007.DVDRip.x264.AC3-UnKn0wn&amp;tr=udp%3A%2F%2Ftracker.openbittorrent.com%3A80&amp;tr=udp%3A%2F%2Fopen.demonii.com%3A1337&amp;tr=udp%3A%2F%2Ftracker.coppersurfer.tk%3A6969&amp;tr=udp%3A%2F%2Fexodus.desync.com%3A6969","seeders":1,"leechers":0,"uploader":null,"files":2,"time":1392216684,"description":"Format : Matroska \nFormat version : Version 2 \nFile size : 2.86 GiB \nDuration : 1h 58mn \nOverall bit rate : 3 453 Kbps \nWriting application : HandBrake 0.9.9 \nWriting library : libmkv 0.6.5 \n\nVideo \nID : 1 \nFormat : AVC \nFormat/Info : Advanced Video Codec \nFormat profile : &lt;a class=&quot;__cf_email__&quot; href=&quot;/cdn-cgi/l/email-protection&quot; data-cfemail=&quot;713c10181f313d445f43&quot;&gt;[email&amp;#160;protected]&lt;/a&gt;&lt;script cf-hash='f9e31' type=&quot;text/javascript&quot;&gt;\n/* &lt;![CDATA[ */!function(){try{var t=&quot;currentScript&quot;in document?document.currentScript:function(){for(var t=document.getElementsByTagName(&quot;script&quot;),e=t.length;e--;)if(t[e].getAttribute(&quot;cf-hash&quot;))return t[e]}();if(t&amp;&amp;t.previousSibling){var e,r,n,i,c=t.previousSibling,a=c.getAttribute(&quot;data-cfemail&quot;);if(a){for(e=&quot;&quot;,r=parseInt(a.substr(0,2),16),n=2;a.length-n;n+=2)i=parseInt(a.substr(n,2),16)^r,e+=String.fromCharCode(i);e=document.createTextNode(e),c.parentNode.replaceChild(e,c)}}}catch(u){}}();/* ]]&gt; */&lt;/script&gt; \nFormat settings, CABAC : Yes \nFormat settings, ReFrames : 4 frames \nCodec ID : V_MPEG4/ISO/AVC \nDuration : 1h 58mn \nBit rate : 3 000 Kbps \nWidth : 720 pixels \nHeight : 462 pixels \nDisplay aspect ratio : 1.85:1 \nOriginal display aspect ratio : 1.85:1 \nFrame rate mode : Constant \nFrame rate : 23.976 fps \nColor space : YUV \nChroma subsampling : 4:2:0 \nBit depth : 8 bits \nScan type : Progressive \nBits/(Pixel*Frame) : 0.376 \nStream size : 2.43 GiB (85%) \nWriting library : x264 core 130 r2273 b3065e6 \nEncoding settings : cabac=1 / ref=1 / deblock=1:0:0 / analyse=0x1:0x111 / me=hex / subme=2 / psy=1 / psy_rd=1.00:0.00 / mixed_ref=0 / me_range=16 / chroma_me=1 / trellis=0 / 8x8dct=0 / cqm=0 / deadzone=21,11 / fast_pskip=1 / chroma_qp_offset=0 / threads=6 / lookahead_threads=2 / sliced_threads=0 / nr=0 / decimate=1 / interlaced=0 / bluray_compat=0 / constrained_intra=0 / bframes=3 / b_pyramid=2 / b_adapt=1 / b_bias=0 / direct=1 / weightb=1 / open_gop=0 / weightp=1 / keyint=240 / keyint_min=24 / scenecut=40 / intra_refresh=0 / rc_lookahead=10 / rc=2pass / mbtree=1 / bitrate=3000 / ratetol=1.0 / qcomp=0.60 / qpmin=0 / qpmax=69 / qpstep=4 / cplxblur=20.0 / qblur=0.5 / vbv_maxrate=240000 / vbv_bufsize=240000 / nal_hrd=none / ip_ratio=1.40 / aq=1:1.00 \nLanguage : English \nDefault : Yes \nForced : No \nColor primaries : BT.601 NTSC \nTransfer characteristics : BT.709 \nMatrix coefficients : BT.601 \n\nAudio \nID : 2 \nFormat : AC-3 \nFormat/Info : Audio Coding 3 \nMode extension : CM (complete main) \nFormat settings, Endianness : Big \nCodec ID : A_AC3 \nDuration : 1h 58mn \nBit rate mode : Constant \nBit rate : 448 Kbps \nChannel(s) : 6 channels \nChannel positions : Front: L C R, Side: L R, LFE \nSampling rate : 48.0 KHz \nBit depth : 16 bits \nCompression mode : Lossy \nStream size : 380 MiB (13%) \nLanguage : English \nDefault : Yes \nForced : No \n\nText \nID : 3 \nFormat : VobSub \nCodec ID : S_VOBSUB \nCodec ID/Info : The same subtitle format used on DVDs \nLanguage : English \nDefault : No \nForced : No \n","torrent":{"xt":"urn:btih:9e27f184bb2deddaa2ba0f8614a7dca93babfb5f","amp;dn":"SuperBad.2007.DVDRip.x264.AC3-UnKn0wn","amp;tr":["udp%3A%2F%2Ftracker.openbittorrent.com%3A80","udp%3A%2F%2Fopen.demonii.com%3A1337","udp%3A%2F%2Ftracker.coppersurfer.tk%3A6969","udp%3A%2F%2Fexodus.desync.com%3A6969"],"infoHash":"9e27f184bb2deddaa2ba0f8614a7dca93babfb5f","infoHashBuffer":{"type":"Buffer","data":[158,39,241,132,187,45,237,218,162,186,15,134,20,167,220,169,59,171,251,95]},"announce":[],"urlList":[]}}